<?xml version="1.0" encoding="UTF-8" standalone="no"?>
<svg
   xmlns:serif="http://www.serif.com/"
   xmlns:dc="http://purl.org/dc/elements/1.1/"
   xmlns:cc="http://creativecommons.org/ns#"
   xmlns:rdf="http://www.w3.org/1999/02/22-rdf-syntax-ns#"
   xmlns:svg="http://www.w3.org/2000/svg"
   xmlns="http://www.w3.org/2000/svg"
   xmlns:sodipodi="http://sodipodi.sourceforge.net/DTD/sodipodi-0.dtd"
   xmlns:inkscape="http://www.inkscape.org/namespaces/inkscape"
   width="4077.5916"
   height="4091.0635"
   viewBox="0 0 4077.5916 4091.0635"
   version="1.1"
   xml:space="preserve"
   style="clip-rule:evenodd;fill-rule:evenodd;stroke-linejoin:round;stroke-miterlimit:2"
   id="svg41"
   sodipodi:docname="coronavirus-icon.svg"
   inkscape:export-filename="C:\Users\miren.berasategi\git-repos\COVID19LiburuZuria-webgunea\assets\images\icon.png"
   inkscape:export-xdpi="7.1999998"
   inkscape:export-ydpi="7.1999998"
   inkscape:version="0.92.3 (2405546, 2018-03-11)"><metadata
   id="metadata47"><rdf:RDF><cc:Work
       rdf:about=""><dc:format>image/svg+xml</dc:format><dc:type
         rdf:resource="http://purl.org/dc/dcmitype/StillImage" /><dc:title></dc:title></cc:Work></rdf:RDF></metadata><defs
   id="defs45" /><sodipodi:namedview
   pagecolor="#ffffff"
   bordercolor="#666666"
   borderopacity="1"
   objecttolerance="10"
   gridtolerance="10"
   guidetolerance="10"
   inkscape:pageopacity="0"
   inkscape:pageshadow="2"
   inkscape:window-width="1920"
   inkscape:window-height="1017"
   id="namedview43"
   showgrid="false"
   inkscape:zoom="0.056568542"
   inkscape:cx="7032.8201"
   inkscape:cy="3818.3319"
   inkscape:window-x="-8"
   inkscape:window-y="-8"
   inkscape:window-maximized="1"
   inkscape:current-layer="svg41"
   fit-margin-top="0.1"
   fit-margin-left="0.1"
   fit-margin-right="0.1"
   fit-margin-bottom="0.1" />
    <path
   d="M 1237.8641,1031.349 C 1159.3664,899.2881 1081.8097,770.41299 1046.8997,718.90475 953.25363,580.74703 836.53554,655.83558 775.71499,566.09967 c -66.71066,-98.42155 31.77358,-198.48436 91.33249,-239.99918 57.12152,-39.81403 187.03952,-95.24437 251.75802,0.24127 64.7185,95.48563 -48.4579,173.89592 45.2213,314.0019 22.676,33.91681 119.9487,161.06343 221.1842,292.83567 103.6913,-59.20014 217.1963,-104.83288 338.6246,-134.02759 -37.3496,-75.09013 -114.3649,-71.99675 -127.985,-140.71578 -17.4748,-88.11005 79.7405,-128.65859 133.0137,-139.97142 51.0821,-10.84697 157.0443,-11.0923 173.999,74.38963 14.5233,73.26019 -57.6355,99.27617 -63.4645,183.93009 117.45,-17.3129 233.9638,-18.12714 346.9862,-4.09591 38.4925,-151.0138 75.713,-300.31939 87.633,-362.30252 31.5348,-163.89847 -104.0943,-193.28814 -83.6158,-299.74144 22.4635,-116.7583092 162.8679,-117.9154702 234.3476,-105.1815352 68.5451,12.2153762 199.6,64.8385012 177.8085,178.1130452 -21.7915,113.27455 -157.2706,88.73507 -190.1504,254.0362 -8.0519,40.47934 -29.6354,202.37851 -51.5209,369.11463 112.9484,30.25459 220.7701,75.59394 320.6638,134.16221 27.8757,-81.45183 -31.3153,-133.72212 7.2267,-193.09174 48.8396,-75.22464 146.7446,-36.10847 192.7848,-6.88166 44.1605,28.02888 120.2649,102.07893 72.8829,175.05797 -40.9149,63.02241 -111.5134,30.09719 -175.0215,88.35249 98.5929,70.364 187.4544,154.5207 263.3684,250.3341 133.6887,-79.3939 264.958,-158.2903 317.0663,-193.589 138.2342,-93.63123 63.1412,-210.27693 152.9232,-271.08655 98.4736,-66.70095 198.5674,31.71566 240.088,91.24277 39.8148,57.09073 95.2438,186.93758 -0.2909,251.64578 -95.5348,64.7081 -173.9643,-48.4031 -314.1399,45.27 -34.1368,22.8029 -162.6577,121.0728 -295.278,222.8911 62.5779,106.3249 110.7413,223.23 141.3156,348.6318 73.8302,-37.4989 70.7698,-114.5925 138.8168,-128.0846 87.5086,-17.3511 128.0582,80.599 139.4446,134.2349 10.9136,51.4359 11.4332,158.0767 -73.4561,174.9096 -72.4511,14.3672 -98.581,-57.6457 -181.8753,-64.2851 16.9964,113.6865 18.5084,226.4938 6.0437,336.1721 148.0557,37.6409 292.8055,73.6032 353.6027,85.2771 163.963,31.4908 193.3892,-104.0845 299.8806,-83.6343 116.8023,22.4341 117.9337,162.7825 105.1819,234.2251 -12.2282,68.5273 -64.9017,199.5313 -178.2172,177.7686 -113.3254,-21.7606 -88.7484,-157.1861 -254.111,-190.0227 -39.6056,-7.864 -195.3835,-28.644 -358.2718,-49.9935 -30.3056,118.3903 -77.1754,231.3454 -138.4831,335.6513 76.6997,21.686 127.4034,-32.9052 184.5269,4.4447 74.7895,48.8883 35.6408,147.3104 6.44,193.621 -27.9971,44.4193 -101.8749,121.0089 -174.4344,73.5815 -60.8492,-39.7793 -31.5503,-107.8557 -82.7913,-170.07 -69.2889,96.1257 -151.7604,182.9051 -245.3836,257.3069 76.6043,128.8107 151.4322,253.0045 185.5485,303.3344 93.6368,138.1617 210.3551,63.0741 271.1762,152.813 66.7105,98.4206 -31.775,198.4775 -91.3335,239.9943 -57.1201,39.8209 -187.0298,95.2423 -251.7475,-0.2394 -64.7275,-95.4797 48.4486,-173.892 -45.232,-314.0048 -22.0712,-33.0111 -114.811,-154.3486 -213.0519,-282.2323 -104.6257,62.0038 -219.6309,110.0726 -342.963,141.1299 38.287,69.4212 111.7936,68.1805 125.0858,135.1558 17.4739,88.1062 -79.7506,128.6597 -133.024,139.9715 -51.0813,10.8509 -157.0431,11.0982 -173.9988,-74.3886 -14.097,-71.0876 53.4379,-97.6954 62.7784,-176.5425 -119.9241,18.6363 -238.953,20.029 -354.4471,5.9425 -36.3295,142.8651 -70.3884,280.1893 -81.7005,338.9724 -31.5245,163.8985 104.1055,193.293 83.6257,299.7395 -22.4638,116.7573 -162.8768,117.9224 -234.3467,105.1864 -68.5449,-12.2144 -199.6113,-64.8443 -177.8093,-178.117 21.7923,-113.2706 157.2706,-88.735 190.1506,-254.0352 7.6544,-38.4905 27.549,-186.8071 48.3136,-344.6952 -113.7226,-29.9483 -222.317,-75.1727 -322.9272,-133.7999 -16.1281,72.6983 33.1995,121.9831 -2.8238,177.4657 -48.831,75.2168 -146.7361,36.1047 -192.7811,6.8799 -44.1606,-28.0299 -120.2609,-102.0797 -72.8828,-175.058 38.258,-58.9335 102.4611,-33.9733 162.5684,-78.094 -99.9661,-72.0623 -189.8069,-158.3555 -266.1462,-256.6644 -127.34455,75.7208 -249.34997,149.2208 -299.12999,182.9382 -138.23532,93.6212 -63.13633,210.2759 -152.92132,271.0861 -98.47652,66.7016 -198.56452,-31.7265 -240.08401,-91.2436 -39.82073,-57.0895 -95.24872,-186.9366 0.28693,-251.6551 95.53967,-64.699 173.96236,48.4136 314.1429,-45.2605 32.81773,-21.9192 152.86866,-113.5878 279.97162,-211.1373 -58.65592,-101.5163 -104.2388,-212.51 -134.04345,-331.2197 -62.85122,39.1821 -63.43578,109.1743 -127.96231,121.9731 -87.50667,17.3507 -128.06119,-80.6086 -139.44066,-134.2356 -10.91659,-51.4456 -11.44406,-158.0848 73.45114,-174.9189 68.58973,-13.5935 95.66378,50.2212 169.02968,62.6898 -18.4505,-122.729 -18.84684,-244.4742 -3.06995,-362.3578 -140.76043,-35.7209 -275.12566,-68.9488 -333.10762,-80.0785 -163.96196,-31.4911 -193.39017,104.0847 -299.8845,83.635 C -6.1421618,1867.2739 -7.2774988,1726.9161 5.4772262,1655.473 17.709419,1586.9551 70.378856,1455.9417 183.69737,1477.7037 c 113.3195,21.7619 88.74443,157.187 254.11003,190.0229 38.17146,7.5873 184.26135,27.1537 340.61054,47.6834 30.74287,-111.691 76.27712,-218.2868 134.79465,-317.0471 -77.3113,-22.5301 -128.22883,32.7687 -185.63275,-4.7584 -74.78658,-48.8888 -35.63597,-147.3165 -6.44064,-193.629 27.99907,-44.4146 101.88368,-121.0108 174.43448,-73.5764 61.23746,40.0292 31.18622,108.7166 83.78082,171.2581 72.5919,-100.121 159.5143,-190.03 258.5096,-266.3082 z"
   style="fill:#3f51b5;fill-opacity:1"
   id="path2"
   inkscape:connector-curvature="0" />
    <g
   transform="matrix(3.4529746,-0.71002974,0.71002974,3.4529746,-4101.0198,-2121.2083)"
   id="g39">
        <g
   id="g37"
   style="opacity:0.2">
            <g
   id="circle833"
   transform="matrix(0.431746,0,0,0.431746,636.17,595.185)">
                <circle
   cx="1699.7"
   cy="1707.48"
   r="93.670998"
   id="circle4" />
            </g>
            <g
   id="circle835"
   transform="matrix(0.431746,0,0,0.431746,817.472,581.312)">
                <circle
   cx="1569"
   cy="2155.6101"
   r="164.625"
   id="circle7" />
            </g>
            <g
   id="circle837"
   transform="matrix(0.370944,0,0,0.370944,701.54,791.604)">
                <circle
   cx="1923.77"
   cy="2525.3201"
   r="104.875"
   id="circle10" />
            </g>
            <g
   id="circle839"
   transform="matrix(0.187408,0,0,0.187408,1235.46,1065.38)">
                <circle
   cx="2485.3701"
   cy="1953.8199"
   r="172.09399"
   id="circle13" />
            </g>
            <g
   id="circle8391"
   serif:id="circle839"
   transform="matrix(0.183259,0,0,0.183259,830.801,1185.47)">
                <circle
   cx="2485.3701"
   cy="1953.8199"
   r="172.09399"
   id="circle16" />
            </g>
            <g
   id="circle841"
   transform="matrix(0.431746,0,0,0.431746,618.83,618.83)">
                <circle
   cx="2144.1001"
   cy="1513.29"
   r="41.389"
   id="circle19" />
            </g>
            <g
   id="circle8411"
   serif:id="circle841"
   transform="matrix(0.320652,0,0,0.320652,1000,822.788)">
                <circle
   cx="2144.1001"
   cy="1513.29"
   r="41.389"
   id="circle22" />
            </g>
            <g
   id="circle8412"
   serif:id="circle841"
   transform="matrix(0.431746,0,0,0.431746,353.652,1040.56)">
                <circle
   cx="2144.1001"
   cy="1513.29"
   r="41.389"
   id="circle25" />
            </g>
            <g
   id="circle8413"
   serif:id="circle841"
   transform="matrix(0.431746,0,0,0.431746,300.196,771.909)">
                <circle
   cx="2144.1001"
   cy="1513.29"
   r="41.389"
   id="circle28" />
            </g>
            <g
   id="circle843"
   transform="matrix(0.226964,0,0,0.226964,1222.74,1217.1)">
                <circle
   cx="2044.95"
   cy="1885.88"
   r="131.015"
   id="circle31" />
            </g>
            <g
   id="circle845"
   transform="matrix(0.33076,0,0,0.33076,834.516,979.057)">
                <circle
   cx="2246.8701"
   cy="2413.02"
   r="71.264999"
   id="circle34" />
            </g>
        </g>
    </g>
</svg>