<?xml version="1.0" encoding="UTF-8" standalone="no"?>
<svg
   xmlns:dc="http://purl.org/dc/elements/1.1/"
   xmlns:cc="http://creativecommons.org/ns#"
   xmlns:rdf="http://www.w3.org/1999/02/22-rdf-syntax-ns#"
   xmlns:svg="http://www.w3.org/2000/svg"
   xmlns="http://www.w3.org/2000/svg"
   xmlns:sodipodi="http://sodipodi.sourceforge.net/DTD/sodipodi-0.dtd"
   xmlns:inkscape="http://www.inkscape.org/namespaces/inkscape"
   aria-hidden="true"
   focusable="false"
   data-prefix="fas"
   data-icon="viruses"
   role="img"
   viewBox="0 0 640 640"
   class="svg-inline--fa fa-viruses fa-w-20 fa-2x"
   version="1.1"
   id="svg4"
   sodipodi:docname="viruses.svg"
   width="640"
   height="640"
   inkscape:version="0.92.3 (2405546, 2018-03-11)"
   inkscape:export-filename="C:\Users\miren.berasategi\git-repos\COVID19LiburuZuria-webgunea\assets\images\icon.png"
   inkscape:export-xdpi="96"
   inkscape:export-ydpi="96">
  <metadata
     id="metadata10">
    <rdf:RDF>
      <cc:Work
         rdf:about="">
        <dc:format>image/svg+xml</dc:format>
        <dc:type
           rdf:resource="http://purl.org/dc/dcmitype/StillImage" />
        <dc:title />
      </cc:Work>
    </rdf:RDF>
  </metadata>
  <defs
     id="defs8" />
  <sodipodi:namedview
     pagecolor="#ffffff"
     bordercolor="#666666"
     borderopacity="1"
     objecttolerance="10"
     gridtolerance="10"
     guidetolerance="10"
     inkscape:pageopacity="0"
     inkscape:pageshadow="2"
     inkscape:window-width="1366"
     inkscape:window-height="827"
     id="namedview6"
     showgrid="false"
     inkscape:zoom="0.4609375"
     inkscape:cx="-348.20339"
     inkscape:cy="256"
     inkscape:window-x="0"
     inkscape:window-y="0"
     inkscape:window-maximized="0"
     inkscape:current-layer="svg4" />
  <path
     d="m 605,426 h -11.3625 c -26.72812,0 -40.11562,-32.31563 -21.21562,-51.21563 L 580.46563,366.75 A 15.001716,15.001716 0 1 0 559.25,345.53437 l -8.03437,8.04375 C 532.31563,372.47812 500,359.09062 500,332.3625 V 321 a 15,15 0 0 0 -30,0 v 11.3625 c 0,26.72812 -32.31562,40.11562 -51.21562,21.21562 L 410.75,345.53437 A 15.001712,15.001712 0 0 0 389.53438,366.75 l 8.04375,8.03437 c 18.9,18.9 5.5125,51.21563 -21.21563,51.21563 H 365 a 15,15 0 0 0 0,30 h 11.3625 c 26.72813,0 40.11563,32.31562 21.21563,51.21562 L 389.53438,515.25 A 15.001712,15.001712 0 1 0 410.75,536.46562 l 8.03438,-8.04375 c 18.9,-18.9 51.21562,-5.5125 51.21562,21.21563 V 561 a 15,15 0 0 0 30,0 v -11.3625 c 0,-26.72813 32.31563,-40.11563 51.21563,-21.21563 l 8.03437,8.04375 A 15.001712,15.001712 0 1 0 580.46563,515.25 l -8.04375,-8.03438 C 553.52188,488.31562 566.90938,456 593.6375,456 H 605 a 15,15 0 0 0 0,-30 z m -135,30 a 30,30 0 1 1 30,-30 30,30 0 0 1 -30,30 z M 344.85313,295.99687 h 15.15 a 19.996875,19.996875 0 0 0 0,-39.99375 h -15.15 c -35.625,0 -53.48438,-43.125 -28.28438,-68.2875 l 10.71563,-10.725 A 19.996875,19.996875 0 0 0 299,148.71562 l -10.71562,10.71563 c -25.2,25.2 -68.2875,7.35937 -68.2875,-28.28438 v -15.15 a 19.996875,19.996875 0 0 0 -39.99375,0 v 15.15 c 0,35.625 -43.125,53.48438 -68.28751,28.28438 L 101,148.71562 a 19.996875,19.996875 0 0 0 -28.284375,28.275 l 10.715625,10.725 c 25.2,25.2 7.359375,68.2875 -28.284375,68.2875 h -15.15 a 19.996875,19.996875 0 0 0 0,39.99375 h 15.15 c 35.625,0 53.484375,43.125 28.284375,68.2875 L 72.715625,375 A 20.000074,20.000074 0 1 0 101,403.28437 l 10.71562,-10.71562 c 25.20001,-25.2 68.28751,-7.35938 68.28751,28.28437 v 15.15 a 19.996875,19.996875 0 0 0 39.99375,0 v -15.15 c 0,-35.625 43.125,-53.48437 68.2875,-28.28437 L 299,403.28437 A 20.000074,20.000074 0 0 0 327.28438,375 l -10.71563,-10.71563 c -25.2,-25.2 -7.35937,-68.2875 28.28438,-68.2875 z M 170,276 a 30,30 0 1 1 30,-30 30,30 0 0 1 -30,30 z m 75,30 a 15,15 0 1 1 15,-15 15,15 0 0 1 -15,15 z"
     class=""
     id="path2"
     style="fill:#3f51b5;fill-opacity:1;stroke-width:0.9375"
     inkscape:connector-curvature="0" />
</svg>
